<?xml version="1.0" standalone="no"?>
<!DOCTYPE svg PUBLIC "-//W3C//DTD SVG 20010904//EN"
 "http://www.w3.org/TR/2001/REC-SVG-20010904/DTD/svg10.dtd">
<svg version="1.0" xmlns="http://www.w3.org/2000/svg"
 width="644.000000pt" height="644.000000pt" viewBox="0 0 644.000000 644.000000"
 preserveAspectRatio="xMidYMid meet">
<metadata>
Created by potrace 1.14, written by Peter Selinger 2001-2017
</metadata>
<g transform="translate(0.000000,644.000000) scale(0.100000,-0.100000)"
fill="#000000" stroke="none">
<path d="M3067 6434 c-1 -1 -42 -5 -92 -9 -49 -3 -103 -8 -120 -10 -58 -7
-123 -16 -146 -20 -13 -3 -51 -10 -84 -16 -33 -6 -69 -13 -80 -15 -44 -8 -185
-46 -265 -71 -47 -15 -87 -27 -90 -27 -10 -2 -105 -38 -137 -52 -17 -8 -34
-14 -38 -14 -16 0 -258 -117 -350 -169 -38 -22 -77 -44 -85 -47 -33 -16 -230
-151 -315 -216 -178 -138 -319 -273 -497 -476 -15 -17 -57 -71 -93 -119 -36
-48 -71 -95 -78 -103 -23 -29 -147 -230 -183 -297 -20 -37 -39 -72 -43 -78
-12 -17 -89 -189 -121 -272 -17 -43 -35 -87 -40 -98 -7 -17 -42 -120 -45 -135
-5 -20 -27 -98 -32 -110 -3 -8 -7 -20 -8 -26 -2 -7 -11 -45 -20 -85 -10 -41
-19 -83 -21 -94 -1 -11 -5 -30 -8 -41 -2 -12 -7 -39 -10 -60 -10 -68 -18 -118
-22 -139 -26 -132 -25 -605 1 -795 3 -19 8 -55 11 -80 11 -79 12 -85 24 -146
6 -32 18 -81 26 -109 8 -27 15 -52 15 -55 1 -22 64 -240 79 -275 5 -11 28 -69
51 -130 52 -134 174 -375 258 -509 58 -93 200 -289 250 -346 215 -245 289
-314 587 -549 22 -18 225 -151 230 -151 2 0 23 -12 46 -26 136 -86 429 -215
623 -274 39 -12 77 -24 85 -27 18 -7 11 -5 140 -37 58 -15 121 -29 140 -32 19
-2 46 -7 60 -10 14 -3 41 -8 60 -10 19 -2 48 -7 64 -10 15 -3 49 -8 75 -9 25
-2 80 -7 121 -11 137 -12 505 -5 590 12 14 2 48 7 75 10 86 10 253 42 355 69
36 9 72 18 80 20 33 7 231 75 320 110 283 111 660 338 874 525 187 164 318
300 475 496 47 58 124 174 197 294 60 98 190 350 214 415 4 11 13 34 20 50 8
17 14 35 16 40 1 6 14 41 28 79 32 85 90 278 101 341 2 11 13 65 25 120 11 55
23 120 26 145 3 25 7 56 9 70 20 112 27 544 12 690 -14 139 -35 272 -62 390
-8 36 -17 76 -19 90 -3 14 -11 46 -20 71 -9 25 -17 54 -19 65 -1 10 -5 24 -8
29 -4 6 -9 24 -13 40 -10 39 -72 209 -96 260 -112 243 -146 308 -233 450 -35
57 -113 170 -119 173 -5 2 -8 8 -8 13 0 5 -6 17 -14 26 -8 10 -47 59 -87 108
-109 135 -251 284 -373 390 -32 28 -63 55 -69 60 -62 56 -338 255 -352 255 -2
0 -39 22 -82 48 -171 106 -539 266 -709 307 -10 3 -62 16 -114 30 -52 14 -106
27 -120 30 -14 2 -36 6 -50 9 -14 3 -38 8 -55 11 -16 3 -43 8 -60 11 -16 3
-52 8 -80 10 -27 3 -61 7 -75 10 -50 11 -492 27 -503 18z m388 -408 c110 -11
148 -16 175 -21 14 -3 41 -7 60 -10 306 -47 681 -184 949 -346 34 -22 66 -39
70 -39 5 0 16 -9 26 -20 10 -11 22 -20 27 -20 8 0 163 -111 218 -157 84 -69
128 -110 225 -208 162 -163 252 -274 366 -450 191 -293 357 -712 402 -1015 3
-19 8 -46 12 -60 3 -14 8 -45 10 -70 3 -25 8 -72 12 -105 9 -86 9 -447 0 -530
-4 -38 -10 -89 -12 -111 -2 -23 -7 -55 -10 -70 -3 -16 -8 -42 -10 -59 -5 -30
-52 -230 -58 -250 -2 -5 -9 -30 -16 -55 -12 -45 -19 -67 -42 -125 -7 -16 -13
-37 -15 -46 -10 -50 -172 -389 -201 -421 -9 -10 -13 -18 -10 -18 6 0 -30 -60
-52 -86 -4 -5 -14 -21 -21 -35 -12 -22 -138 -198 -150 -209 -3 -3 -32 -36 -64
-75 -87 -103 -258 -268 -374 -363 -56 -45 -105 -82 -108 -82 -3 0 -19 -10 -34
-22 -30 -25 -34 -28 -130 -89 -66 -43 -284 -157 -375 -196 -51 -22 -237 -92
-265 -99 -8 -2 -49 -13 -90 -25 -75 -21 -179 -45 -235 -55 -16 -2 -37 -7 -45
-9 -8 -2 -40 -7 -70 -10 -30 -3 -66 -8 -80 -10 -121 -22 -523 -22 -640 0 -14
2 -49 7 -79 10 -30 4 -63 9 -75 11 -12 2 -36 7 -55 10 -18 3 -43 8 -55 11 -42
10 -101 23 -126 29 -25 5 -252 79 -280 91 -8 3 -19 7 -25 8 -47 12 -357 163
-363 178 -2 4 -8 7 -14 7 -13 0 -182 106 -203 126 -7 8 -18 14 -24 14 -6 0
-11 5 -11 10 0 6 -6 10 -14 10 -8 0 -16 3 -18 8 -2 4 -23 23 -48 42 -25 19
-53 42 -64 50 -99 81 -271 250 -356 350 -30 36 -57 67 -60 70 -3 3 -27 34 -52
70 -26 36 -52 70 -58 77 -5 7 -10 17 -10 23 0 5 -4 10 -10 10 -5 0 -10 7 -10
15 0 8 -4 15 -8 15 -5 0 -16 15 -25 32 -10 18 -31 56 -49 83 -66 106 -221 440
-233 504 -2 9 -4 16 -5 16 -1 0 -3 7 -6 15 -2 8 -19 67 -38 130 -19 63 -36
129 -39 145 -3 17 -8 41 -11 55 -9 38 -16 80 -22 130 -3 25 -7 51 -10 58 -18
56 -26 487 -12 622 14 127 18 165 23 190 12 56 15 77 20 111 2 20 9 48 15 63
5 15 9 30 9 34 -1 4 -1 9 0 12 1 3 11 37 22 75 10 39 21 75 22 80 46 141 64
190 87 242 11 24 20 46 20 50 0 16 140 284 190 364 144 228 334 452 545 640
113 100 327 250 465 326 63 35 163 86 170 88 3 1 28 12 55 24 66 30 99 44 105
45 3 1 24 9 45 18 98 41 325 106 465 133 116 21 197 32 305 41 44 3 81 7 82 8
5 4 317 -2 378 -8z"/>
<path d="M2538 3875 c-2 -1 -39 -5 -83 -9 -71 -6 -103 -10 -155 -20 -25 -5
-101 -26 -160 -46 -131 -42 -271 -130 -381 -239 -70 -71 -179 -217 -179 -241
0 -5 -4 -10 -10 -10 -5 0 -10 -9 -10 -20 0 -11 -4 -20 -10 -20 -5 0 -10 -4
-10 -10 0 -5 -11 -33 -24 -62 -27 -59 -70 -182 -85 -243 l-10 -40 22 30 c35
48 178 188 227 222 65 44 155 88 225 108 110 33 362 22 413 -18 6 -5 12 -6 12
-3 0 10 96 -42 155 -84 61 -43 102 -80 263 -240 204 -202 306 -282 457 -358
87 -44 159 -70 265 -97 6 -1 63 -13 97 -19 91 -18 312 -24 433 -12 405 39 719
245 892 582 39 77 104 235 112 274 3 14 10 41 15 60 l11 34 -32 -39 c-35 -43
-147 -156 -189 -191 -24 -19 -156 -98 -169 -100 -3 0 -39 -11 -80 -24 -94 -30
-258 -33 -360 -7 -152 40 -236 99 -480 339 -231 228 -345 316 -499 385 -107
48 -240 88 -323 98 -23 2 -57 7 -73 10 -30 5 -272 14 -277 10z"/>
</g>
</svg>
